<?xml version="1.0" standalone="no"?>
<!DOCTYPE svg PUBLIC "-//W3C//DTD SVG 20010904//EN"
 "http://www.w3.org/TR/2001/REC-SVG-20010904/DTD/svg10.dtd">
<svg version="1.0" xmlns="http://www.w3.org/2000/svg"
 width="1507.000000pt" height="425.000000pt" viewBox="0 0 1507.000000 425.000000"
 preserveAspectRatio="xMidYMid meet">

<g transform="translate(0.000000,425.000000) scale(0.100000,-0.100000)"
fill="#000000" stroke="none">
<path d="M5035 2966 c-320 -49 -541 -245 -627 -556 -29 -108 -36 -343 -13
-465 58 -309 245 -516 540 -597 69 -19 106 -22 270 -22 202 -1 274 9 436 60
82 26 114 52 129 105 14 47 13 618 -1 657 -22 63 -38 67 -301 67 -224 0 -238
-1 -265 -21 -49 -36 -56 -114 -14 -165 19 -23 25 -24 180 -27 l161 -3 0 -189
0 -189 -52 -16 c-133 -40 -332 -44 -448 -9 -140 41 -229 115 -285 237 -46 100
-59 172 -58 322 1 203 44 334 143 434 91 93 201 131 376 131 129 0 218 -20
337 -74 43 -20 92 -36 109 -36 96 0 147 141 77 216 -36 38 -178 102 -274 124
-118 26 -304 33 -420 16z"/>
<path d="M7365 2970 c-223 -30 -424 -147 -532 -310 -101 -151 -143 -301 -143
-516 0 -415 198 -700 555 -795 157 -42 426 -37 618 12 148 37 183 55 206 103
20 40 21 59 21 349 0 331 -4 362 -52 389 -17 10 -81 13 -260 13 -225 0 -238
-1 -265 -21 -37 -28 -49 -73 -34 -124 18 -62 44 -70 216 -70 l145 0 -2 -192
-3 -192 -70 -19 c-100 -27 -336 -29 -420 -4 -239 74 -345 242 -346 547 -1 209
43 349 141 448 93 94 200 132 376 132 130 0 223 -20 340 -74 42 -20 90 -36
107 -36 67 0 126 82 113 155 -13 68 -149 149 -314 186 -103 22 -298 32 -397
19z"/>
<path d="M10565 2965 c-388 -63 -625 -373 -625 -815 0 -226 65 -428 185 -573
88 -106 228 -195 370 -233 97 -26 351 -27 445 -1 220 60 396 214 483 423 52
126 62 185 62 384 0 149 -4 199 -19 255 -59 223 -185 391 -362 482 -101 52
-158 70 -264 83 -106 13 -174 12 -275 -5z m315 -264 c124 -39 227 -149 270
-289 33 -106 45 -254 31 -369 -28 -230 -127 -381 -288 -444 -70 -27 -207 -36
-283 -20 -158 34 -274 148 -330 326 -31 99 -39 309 -16 426 53 262 229 409
476 394 41 -2 104 -13 140 -24z"/>
<path d="M11879 2971 c-50 -16 -68 -32 -84 -74 -15 -39 -16 -96 -13 -548 4
-480 5 -508 26 -582 63 -229 194 -360 422 -424 51 -14 102 -18 235 -18 133 0
184 4 235 18 180 50 298 142 368 287 74 151 77 184 77 755 0 551 2 530 -62
572 -36 24 -130 24 -166 0 -64 -42 -61 -21 -67 -587 -5 -468 -7 -520 -24 -565
-25 -68 -32 -81 -74 -127 -79 -88 -234 -126 -385 -95 -134 27 -215 94 -260
214 -21 56 -22 74 -27 573 -5 563 -4 546 -63 585 -29 18 -103 27 -138 16z"/>
<path d="M3266 2950 c-15 -5 -37 -17 -48 -27 -49 -44 -48 -25 -48 -783 0 -778
-1 -759 57 -798 36 -23 141 -22 177 1 53 35 56 59 56 386 l0 300 333 3 c376 3
376 3 398 78 9 31 9 49 0 80 -22 75 -22 75 -398 78 l-333 3 0 225 0 224 338 0
c197 0 352 4 373 10 49 14 69 47 69 112 0 65 -18 94 -68 108 -45 12 -864 12
-906 0z"/>
<path d="M8511 2947 c-19 -8 -44 -26 -55 -41 -21 -27 -21 -39 -24 -754 -2
-677 -1 -729 15 -762 45 -89 201 -94 253 -8 19 31 20 50 20 322 l0 288 153 -4
c165 -5 208 -16 260 -66 16 -15 81 -124 144 -242 188 -347 193 -353 310 -354
52 -1 65 3 87 23 31 29 42 81 28 128 -6 19 -57 119 -113 223 -108 199 -163
270 -228 297 l-36 15 64 23 c173 63 267 184 292 375 26 208 -59 389 -226 477
-119 62 -143 65 -545 69 -281 3 -373 0 -399 -9z m713 -241 c112 -34 165 -100
174 -216 8 -121 -32 -199 -128 -247 -55 -28 -55 -28 -302 -31 l-248 -3 0 255
0 256 228 0 c170 0 241 -4 276 -14z"/>
<path d="M13570 2947 c-19 -7 -44 -27 -57 -46 l-23 -34 0 -726 c0 -711 1 -727
20 -759 52 -86 208 -81 252 8 16 31 18 67 18 291 l0 256 258 6 c172 4 279 11
324 21 191 42 318 159 363 331 19 74 20 242 1 312 -45 167 -166 283 -346 331
-76 20 -758 28 -810 9z m700 -238 c64 -14 127 -61 160 -119 21 -39 25 -58 25
-135 0 -112 -23 -169 -86 -214 -73 -54 -118 -61 -366 -61 l-223 0 0 270 0 270
220 0 c120 0 242 -5 270 -11z"/>
</g>
</svg>
